# xmcd
# 
# Track frame offsets:
#     150
#     26451
#     46902
#     65600
#     91907
#     107197
#     123165
#     147312
#     167160
#     186502
#     203052
#     222936
#     243899
#     264417
#     285523
#     309672
# 
# Disc length: 4359
# 
# Revision: 3
# Processed by: cddbd v1.5.2PL0 Copyright (c) Steve Scherf et al.
# Submitted via: fre:ac v1.0.17
# 
DISCID=e7110510
DTITLE=Bonnie Tyler  - Holding Out For a Hero: The Very Best Of
DYEAR=2011
DGENRE=Pop/Rock
TTITLE0=Holding Out For A Hero
TTITLE1=Total Eclipse Of The Heart\t\t
TTITLE2=Have You Ever Seen The Rain?\t\t
TTITLE3=Band Of Gold \t\t
TTITLE4=Here She Comes \t
TTITLE5=Getting So Excited\t
TTITLE6=Before This Night Is Through\t\t
TTITLE7=Save Up All Your Tears\t\t
TTITLE8=The Best\t\t
TTITLE9=Shy With You\t\t
TTITLE10=Hide Your Heart \t
TTITLE11=It's A Jungle Out There\t\t
TTITLE12=Lovers Again\t
TTITLE13=Streets Of Little Italy \t\t
TTITLE14=No Way To Treat A Lady\t\t
TTITLE15=Tears
EXTD=
EXTT0=
EXTT1=
EXTT2=
EXTT3=
EXTT4=
EXTT5=
EXTT6=
EXTT7=
EXTT8=
EXTT9=
EXTT10=
EXTT11=
EXTT12=
EXTT13=
EXTT14=
EXTT15=
PLAYORDER=
